<svg id="Layer_1" data-name="Layer 1" xmlns="http://www.w3.org/2000/svg" viewBox="0 0 85.68 64.48"><defs><style>.cls-1{fill:#008cff;}.cls-2{fill:red;}.cls-3{fill:#fff500;}.cls-4{fill:#78c800;}</style></defs><title>beckers_logo</title><path d="M0,46.94H6.12a13.37,13.37,0,0,1,3.74.29,4.07,4.07,0,0,1,2.28,6.26A3.26,3.26,0,0,1,10,54.73a4.39,4.39,0,0,1,3.67,4.52,4.49,4.49,0,0,1-3.06,4.45,10.34,10.34,0,0,1-3.9.42H0Zm3.19,2.63v4.28H4.28c.9,0,1.56,0,2,0a4.89,4.89,0,0,0,2.19-.34A2,2,0,0,0,8.56,50c-.68-.38-1-.41-3.36-.43Zm0,6.69v5.08H6.35c1.9,0,2.41,0,3.24-.58a2.23,2.23,0,0,0,.77-1.8,2.68,2.68,0,0,0-.31-1.29c-.78-1.39-2.58-1.39-3.67-1.39Z"/><path d="M27.17,61.39a7.09,7.09,0,0,1-5.94,3.09c-3.18,0-6.25-2-6.25-6.49,0-4.09,2.63-6.4,6.06-6.4a5.49,5.49,0,0,1,4.79,2.28,9.08,9.08,0,0,1,1.24,4.75h-9a3.3,3.3,0,0,0,3.46,3A3.57,3.57,0,0,0,24.69,60Zm-3.31-4.91a2.61,2.61,0,0,0-2.73-2.56,2.88,2.88,0,0,0-3,2.56Z"/><path d="M37.23,56.26a2.84,2.84,0,0,0-2.75-2.07c-1.68,0-3,1.34-3,3.77,0,2.19,1.13,3.8,3.06,3.8a3.1,3.1,0,0,0,2.92-2.38L40,60.69a5.73,5.73,0,0,1-5.47,3.79c-3.38,0-6-2.6-6-6.44a6.15,6.15,0,0,1,6.13-6.45A5.6,5.6,0,0,1,39.83,55Z"/><path d="M44.39,46.94V56.6L49.14,52h3.72L48.21,56.6l5.11,7.52H49.77l-3.68-5.45-1.7,1.68v3.77H41.5V46.94Z"/><path d="M65.41,61.39a7.06,7.06,0,0,1-5.93,3.09c-3.19,0-6.25-2-6.25-6.49,0-4.09,2.62-6.4,6.05-6.4a5.52,5.52,0,0,1,4.8,2.28,9.27,9.27,0,0,1,1.24,4.75h-9a3.29,3.29,0,0,0,3.45,3A3.55,3.55,0,0,0,62.93,60Zm-3.3-4.91a2.61,2.61,0,0,0-2.73-2.56,2.88,2.88,0,0,0-3,2.56Z"/><path d="M70.15,52v1.73c.36-.63,1.17-2.07,3.89-2v3a4.42,4.42,0,0,0-2.62.73c-1.24,1-1.27,2.19-1.27,4.21v4.5H67.33V52Z"/><path d="M76.54,60.52A4.2,4.2,0,0,0,80,62.07c1.68,0,2.41-.82,2.41-1.43,0-.78-.87-1-1.26-1s-2.41-.46-2.84-.58c-2.91-.68-3.44-2.36-3.44-3.46,0-2.06,1.88-4,5.21-4a6.82,6.82,0,0,1,4,1.17,5.27,5.27,0,0,1,1.24,1.09L83.3,55.77A3.42,3.42,0,0,0,80,53.92c-1.39,0-2,.61-2,1.24,0,.88.9,1.12,2.45,1.39,2.54.46,3.24.59,4,1.19a3.33,3.33,0,0,1,1.24,2.58c0,1.9-1.7,4.16-5.47,4.16a8.33,8.33,0,0,1-5.84-2.16Z"/><path class="cls-1" d="M63.8,42.52a21.28,21.28,0,0,0-42.56,0h7.11a14.17,14.17,0,1,1,28.34,0Z"/><path class="cls-2" d="M85,42.52a42.52,42.52,0,0,0-85,0H7.19a35.33,35.33,0,0,1,70.66,0Z"/><path class="cls-3" d="M42.52,14.14A28.38,28.38,0,0,1,70.9,42.52h6.95a35.33,35.33,0,0,0-70.66,0h7A28.38,28.38,0,0,1,42.52,14.14Z"/><path class="cls-4" d="M70.9,42.52a28.38,28.38,0,0,0-56.76,0h7.1a21.28,21.28,0,0,1,42.56,0h7.1Z"/></svg>