<?xml version="1.0" encoding="utf-8"?>
<!-- Generator: Adobe Illustrator 15.1.0, SVG Export Plug-In . SVG Version: 6.00 Build 0)  -->
<!DOCTYPE svg PUBLIC "-//W3C//DTD SVG 1.1//EN" "http://www.w3.org/Graphics/SVG/1.1/DTD/svg11.dtd">
<svg version="1.1" id="Ebene_1" xmlns="http://www.w3.org/2000/svg" xmlns:xlink="http://www.w3.org/1999/xlink" x="0px" y="0px"
	 width="645.165px" height="179.641px" viewBox="0 0 645.165 179.641" enable-background="new 0 0 645.165 179.641"
	 xml:space="preserve">
<path fill="#312783" d="M15.835,25.576h0.876c2.711,0,4.701-0.565,5.988-1.7c1.296-1.14,1.937-2.91,1.937-5.293
	c0-2.069-0.64-3.667-1.913-4.783c-1.282-1.116-3.104-1.663-5.477-1.663c-0.378,0-0.666,0-0.876,0.014
	c-0.21,0.014-0.369,0.038-0.498,0.065L15.835,25.576z M15.835,51.119h1.191c2.885,0,5.05-0.682,6.519-2.032
	c1.46-1.35,2.191-3.363,2.191-6.049c0-2.504-0.722-4.335-2.146-5.503c-1.446-1.168-3.709-1.743-6.804-1.743h-0.95L15.835,51.119
	L15.835,51.119z M2,61.574V2.467h14.867c4.491,0,7.731,0.187,9.677,0.542c1.957,0.355,3.66,0.958,5.085,1.808
	c2.125,1.271,3.737,2.961,4.823,5.063s1.621,4.573,1.621,7.446c0,2.555-0.507,4.83-1.516,6.834c-1.009,1.99-2.623,3.947-4.851,5.83
	c2.637,1.336,4.61,3.144,5.951,5.438c1.319,2.289,1.99,5.031,1.99,8.226c0,2.63-0.446,5.134-1.34,7.475
	c-0.904,2.359-2.142,4.363-3.754,6.031c-1.546,1.611-3.436,2.747-5.683,3.419c-2.258,0.663-5.731,0.995-10.429,0.995H2L2,61.574z
	 M79.02,17.168v44.406H67.376v-5.255c-1.387,2.121-2.936,3.671-4.641,4.652c-1.712,0.981-3.73,1.467-6.045,1.467
	c-3.436,0-5.951-1.154-7.558-3.448c-1.612-2.293-2.411-5.909-2.411-10.833v-30.99h12.412v27.458c0,3.56,0.241,5.76,0.694,6.624
	c0.464,0.851,1.273,1.28,2.455,1.28c1.374,0,2.448-0.664,3.232-1.99c0.775-1.331,1.168-3.205,1.168-5.62V17.168H79.02z
	 M87.363,61.574V17.168h11.384v6.208c1.362-2.214,2.854-3.9,4.478-5.04c1.625-1.154,3.461-1.822,5.519-2.032v14.065
	c-0.698-0.159-1.352-0.271-1.98-0.355c-0.626-0.075-1.205-0.112-1.712-0.112c-2.004,0-3.396,0.706-4.167,2.107
	c-0.79,1.411-1.182,4.162-1.182,8.269v21.297L87.363,61.574L87.363,61.574z M126.123,33.513v3.223c0,5.802,0.276,9.497,0.827,11.085
	c0.549,1.57,1.53,2.359,2.971,2.359c1.453,0,2.462-0.701,3.041-2.103c0.575-1.387,0.862-4.349,0.862-8.852v-1.794
	c0-4.821-0.273-7.862-0.822-9.104c-0.551-1.256-1.551-1.887-3.001-1.887c-1.334,0-2.319,0.561-2.932,1.677
	C126.439,29.229,126.123,31.023,126.123,33.513 M146.241,17.168v39.768c0,4.064-0.22,7.072-0.654,9.039
	c-0.432,1.952-1.163,3.615-2.186,4.965c-1.425,1.845-3.34,3.233-5.737,4.163c-2.387,0.929-5.267,1.406-8.646,1.406
	c-5.202,0-9.065-1.065-11.592-3.186c-2.525-2.121-3.798-5.386-3.798-9.782h12.26c0,1.659,0.301,2.877,0.904,3.639
	c0.603,0.771,1.546,1.154,2.817,1.154c1.584,0,2.684-0.514,3.298-1.523c0.617-1.009,0.918-2.985,0.918-5.933v-5.213
	c-1.637,1.481-3.195,2.569-4.664,3.233c-1.479,0.687-2.971,1.023-4.515,1.023c-2.149,0-4.047-0.575-5.713-1.738
	c-1.663-1.168-2.959-2.85-3.889-5.017c-0.488-1.145-0.836-2.808-1.074-4.966c-0.222-2.163-0.341-4.952-0.341-8.385
	c0-3.302,0.082-6.236,0.25-8.829c0.166-2.579,0.392-4.676,0.668-6.283c0.483-2.48,1.665-4.522,3.522-6.133
	c1.845-1.612,3.98-2.425,6.391-2.425c1.966,0,3.797,0.486,5.505,1.453c1.703,0.972,3.368,2.48,4.975,4.508v-4.938H146.241
	L146.241,17.168z M154.799,61.574V17.168h10.973v5.265c1.336-2.121,2.819-3.667,4.468-4.648c1.637-0.985,3.56-1.48,5.788-1.48
	c2.035,0,3.775,0.523,5.253,1.569c1.469,1.051,2.606,2.569,3.391,4.56c1.338-2.093,2.831-3.639,4.51-4.639
	c1.675-0.995,3.602-1.49,5.774-1.49c3.3,0,5.713,1.14,7.233,3.419c1.516,2.275,2.276,5.905,2.276,10.894v30.958h-11.868V33.454
	c0-3.172-0.222-5.162-0.67-6.002c-0.441-0.827-1.214-1.243-2.314-1.243c-1.322,0-2.359,0.682-3.121,2.027
	c-0.745,1.359-1.128,3.228-1.128,5.61v27.729h-11.629V33.453c0-3.172-0.224-5.162-0.654-6.002c-0.432-0.827-1.221-1.243-2.345-1.243
	c-1.311,0-2.343,0.682-3.09,2.027c-0.759,1.359-1.142,3.228-1.142,5.61v27.729H154.799z M232.211,40.193
	c-3.2,0.906-5.529,2.008-6.998,3.34c-1.464,1.327-2.2,2.99-2.2,4.994c0,1.401,0.367,2.527,1.092,3.363
	c0.73,0.85,1.712,1.275,2.931,1.275c1.817,0,3.13-0.622,3.947-1.85c0.821-1.219,1.229-3.274,1.229-6.171V40.193z M233.78,61.574
	l-0.733-4.078c-1.558,1.644-3.261,2.873-5.107,3.695c-1.859,0.827-3.865,1.248-6.035,1.248c-3.474,0-6.226-1.131-8.252-3.382
	c-2.034-2.238-3.059-5.288-3.059-9.119c0-3.349,0.867-6.11,2.583-8.287c1.727-2.163,4.56-4.05,8.5-5.634
	c0.943-0.354,2.217-0.827,3.828-1.415c4.62-1.701,6.939-3.606,6.939-5.736c0-1.313-0.339-2.294-1.01-2.971
	c-0.653-0.687-1.62-1.023-2.87-1.023c-1.507,0-2.631,0.458-3.361,1.359c-0.724,0.916-1.086,2.321-1.086,4.218v0.313h-12.424
	c0-5.013,1.392-8.75,4.181-11.184c2.789-2.448,7.023-3.667,12.689-3.667c2.556,0,4.852,0.233,6.851,0.706
	c2.004,0.477,3.684,1.167,5.048,2.06c1.74,1.172,2.957,2.593,3.648,4.256c0.71,1.663,1.062,4.699,1.062,9.104v1.331v15.771
	c0,3.476,0.119,6.134,0.369,7.965c0.233,1.822,0.64,3.316,1.205,4.471L233.78,61.574L233.78,61.574z M253.431,61.574V17.168h11.644
	v5.265c1.364-2.093,2.908-3.639,4.647-4.639c1.743-0.995,3.774-1.49,6.105-1.49c3.434,0,5.935,1.14,7.519,3.434
	c1.584,2.289,2.384,5.918,2.384,10.879v30.958h-12.338V34.144c0-3.55-0.232-5.765-0.693-6.628c-0.458-0.878-1.271-1.308-2.448-1.308
	c-1.378,0-2.45,0.668-3.239,2.013c-0.769,1.341-1.166,3.214-1.166,5.625v27.729L253.431,61.574L253.431,61.574z M294.071,61.574
	V17.168h11.647v5.265c1.361-2.093,2.908-3.639,4.647-4.639c1.743-0.995,3.774-1.49,6.105-1.49c3.434,0,5.936,1.14,7.519,3.434
	c1.584,2.289,2.387,5.918,2.387,10.879v30.958h-12.341V34.144c0-3.55-0.238-5.765-0.694-6.628c-0.458-0.878-1.272-1.308-2.448-1.308
	c-1.378,0-2.449,0.668-3.239,2.013c-0.771,1.341-1.168,3.214-1.168,5.625v27.729L294.071,61.574L294.071,61.574z M367.079,27.898
	c0.205,0.023,0.443,0.047,0.705,0.075c0.273,0.028,0.639,0.038,1.139,0.038c2.752,0,4.756-0.64,5.977-1.934
	c1.229-1.285,1.846-3.354,1.846-6.227c0-2.364-0.654-4.069-1.949-5.115c-1.311-1.056-3.488-1.575-6.529-1.575h-1.188V27.898
	L367.079,27.898z M353.167,61.574V2.467h13.607c5.004,0,8.697,0.225,11.096,0.654c2.387,0.439,4.398,1.168,6.035,2.191
	c2.176,1.322,3.83,3.303,4.965,5.933c1.145,2.621,1.705,5.75,1.705,9.38c0,5.989-1.568,10.543-4.729,13.65
	c-3.156,3.102-7.791,4.662-13.9,4.662h-4.867v22.638L353.167,61.574L353.167,61.574z M415.473,40.193
	c-3.193,0.906-5.525,2.008-6.986,3.34c-1.473,1.327-2.205,2.99-2.205,4.994c0,1.401,0.369,2.527,1.088,3.363
	c0.734,0.85,1.715,1.275,2.93,1.275c1.82,0,3.139-0.622,3.951-1.85c0.822-1.219,1.225-3.274,1.225-6.171v-4.951H415.473z
	 M417.053,61.574l-0.738-4.078c-1.557,1.644-3.262,2.873-5.109,3.695c-1.855,0.827-3.869,1.248-6.035,1.248
	c-3.477,0-6.223-1.131-8.25-3.382c-2.033-2.238-3.057-5.288-3.057-9.119c0-3.349,0.869-6.11,2.58-8.287
	c1.729-2.163,4.559-4.05,8.502-5.634c0.941-0.354,2.213-0.827,3.826-1.415c4.617-1.701,6.936-3.606,6.936-5.736
	c0-1.313-0.336-2.294-1.008-2.971c-0.646-0.687-1.617-1.023-2.863-1.023c-1.51,0-2.635,0.458-3.369,1.359
	c-0.719,0.916-1.084,2.321-1.084,4.218v0.313h-12.426c0-5.013,1.393-8.75,4.188-11.184c2.783-2.448,7.02-3.667,12.691-3.667
	c2.555,0,4.844,0.233,6.854,0.706c1.998,0.477,3.676,1.167,5.039,2.06c1.742,1.172,2.963,2.593,3.652,4.256
	c0.711,1.663,1.062,4.699,1.062,9.104v1.331v15.771c0,3.476,0.115,6.134,0.373,7.965c0.232,1.822,0.635,3.316,1.205,4.471
	L417.053,61.574L417.053,61.574z M455.637,44.122h12.18c0,0.238,0.014,0.528,0.043,0.906c0.027,0.369,0.037,0.645,0.037,0.827
	c0,5.667-1.322,9.903-3.953,12.707c-2.635,2.789-6.633,4.19-11.996,4.19c-6.066,0-10.342-1.714-12.799-5.162
	c-2.477-3.429-3.709-9.511-3.709-18.209c0-8.68,1.246-14.762,3.719-18.218c2.49-3.443,6.746-5.176,12.77-5.176
	c5.42,0,9.418,1.392,11.971,4.167c2.559,2.78,3.84,7.105,3.84,12.982v0.775h-11.945V32.64c0-2.663-0.285-4.56-0.865-5.69
	c-0.578-1.125-1.541-1.687-2.904-1.687c-1.574,0-2.635,0.757-3.182,2.266c-0.557,1.504-0.836,5.461-0.836,11.866
	c0,6.143,0.279,10.048,0.836,11.725c0.547,1.677,1.584,2.518,3.105,2.518c1.305,0,2.262-0.593,2.863-1.785
	c0.604-1.191,0.902-3.073,0.902-5.657c0-0.21-0.01-0.537-0.039-0.995C455.647,44.738,455.637,44.369,455.637,44.122 M475.454,61.574
	V2.467h12.184V31.71l9.744-14.542h12.416L496.844,34.13l13.191,27.444h-12.432l-7.936-18.079l-2.033,2.84v15.238L475.454,61.574
	L475.454,61.574z M514.211,2h12.342v10.768h-12.342V2z M514.211,17.168h12.342v44.406h-12.342V17.168z M535.051,61.574V17.168
	h11.646v5.265c1.359-2.093,2.91-3.639,4.646-4.639c1.744-0.995,3.775-1.49,6.105-1.49c3.434,0,5.93,1.14,7.518,3.434
	c1.588,2.289,2.383,5.918,2.383,10.879v30.958h-12.334V34.144c0-3.55-0.232-5.765-0.699-6.628c-0.453-0.878-1.268-1.308-2.443-1.308
	c-1.377,0-2.451,0.668-3.236,2.013c-0.775,1.341-1.164,3.214-1.164,5.625v27.729L535.051,61.574L535.051,61.574z M586.942,33.513
	v3.223c0,5.802,0.266,9.497,0.82,11.085c0.553,1.57,1.533,2.359,2.977,2.359c1.447,0,2.457-0.701,3.031-2.103
	c0.578-1.387,0.869-4.349,0.869-8.852v-1.794c0-4.821-0.275-7.862-0.822-9.104c-0.551-1.256-1.551-1.887-3.01-1.887
	c-1.336,0-2.314,0.561-2.934,1.677C587.249,29.229,586.942,31.023,586.942,33.513 M607.055,17.168v39.768
	c0,4.064-0.223,7.072-0.652,9.039c-0.43,1.952-1.168,3.615-2.188,4.965c-1.43,1.845-3.344,3.233-5.736,4.163
	c-2.383,0.929-5.27,1.406-8.65,1.406c-5.199,0-9.059-1.065-11.59-3.186c-2.527-2.121-3.797-5.386-3.797-9.782H586.7
	c0,1.659,0.303,2.877,0.904,3.639c0.6,0.771,1.547,1.154,2.812,1.154c1.588,0,2.691-0.514,3.307-1.523
	c0.613-1.009,0.916-2.985,0.916-5.933v-5.213c-1.639,1.481-3.193,2.569-4.666,3.233c-1.48,0.687-2.971,1.023-4.518,1.023
	c-2.148,0-4.051-0.575-5.709-1.738c-1.662-1.168-2.961-2.85-3.896-5.017c-0.484-1.145-0.836-2.808-1.068-4.966
	c-0.221-2.163-0.342-4.952-0.342-8.385c0-3.302,0.074-6.236,0.252-8.829c0.168-2.579,0.393-4.676,0.664-6.283
	c0.484-2.48,1.662-4.522,3.521-6.133c1.85-1.612,3.99-2.425,6.391-2.425c1.973,0,3.803,0.486,5.508,1.453
	c1.695,0.972,3.363,2.48,4.975,4.508v-4.938H607.055L607.055,17.168z M612.938,47.504l11.084,0.037
	c0.131,2.308,0.57,3.98,1.346,5.045c0.775,1.06,1.924,1.602,3.457,1.602c1.232,0,2.238-0.369,3.037-1.107
	c0.803-0.715,1.193-1.659,1.193-2.812c0-0.995-0.27-1.822-0.824-2.476c-0.549-0.659-1.771-1.429-3.668-2.317
	c-0.402-0.21-1.047-0.528-1.91-0.935c-4.48-2.069-7.598-4.008-9.367-5.83c-1.26-1.229-2.213-2.653-2.887-4.298
	c-0.662-1.635-0.99-3.349-0.99-5.143c0-4.05,1.373-7.273,4.129-9.684c2.748-2.392,6.457-3.602,11.129-3.602
	c4.857,0,8.604,1.159,11.229,3.471c2.615,2.321,3.93,5.638,3.93,9.955v0.799l-10.848-0.038c-0.053-2.228-0.393-3.812-1.023-4.755
	c-0.615-0.939-1.635-1.416-3.035-1.416c-1.258,0-2.256,0.346-3,1.023c-0.746,0.672-1.111,1.56-1.111,2.662
	c0,1.953,1.855,3.728,5.561,5.373c0.514,0.233,0.906,0.402,1.195,0.532c5.059,2.28,8.449,4.494,10.164,6.643
	c1.721,2.144,2.568,4.965,2.568,8.437c0,4.475-1.373,7.937-4.139,10.398c-2.76,2.448-6.707,3.681-11.828,3.681
	c-4.861,0-8.646-1.247-11.342-3.718c-2.699-2.476-4.049-5.951-4.049-10.413V47.504z"/>
<path fill="#868686" d="M554.768,81.772l-12.695-10.46l-2.98,4.156C521.5,100,495.866,120.697,464.891,135.242
	c-30.971,14.547-67.26,22.938-106.076,22.938c-38.822,0.001-75.112-8.391-106.083-22.938c-30.975-14.547-56.606-35.244-74.2-59.772
	l-2.98-4.155l-16.189,13.33l2.669,3.646c19.849,27.112,48.133,49.643,81.892,65.413c33.764,15.771,73.021,24.781,114.893,24.782
	c41.869-0.001,81.125-9.013,114.887-24.782c33.758-15.771,62.039-38.301,81.887-65.413l2.668-3.645L554.768,81.772z"/>
</svg>
