<svg xmlns="http://www.w3.org/2000/svg" width="128.002" height="46.111" viewBox="0 0 128.002 46.111">
  <defs>
    <style>
      .cls-1 {
        fill: #3b404a;
      }

      .cls-2 {
        fill: #ee202e;
      }
    </style>
  </defs>
  <g id="Group_596" data-name="Group 596" transform="translate(-55.999 -26.168)">
    <path id="Path_2038" data-name="Path 2038" class="cls-1" d="M108.366,97.553V91.067q0-6.664,3.083-9.823t8.953-3.357v4.526q-3.879.249-5.57,2.487a10.386,10.386,0,0,0-1.691,6.366v4.851" transform="translate(-46.969 -51.719)"/>
    <path id="Path_2039" data-name="Path 2039" class="cls-1" d="M101.776,105.388v4.675L122.683,98.8Z" transform="translate(-45.777 -55.498)"/>
    <path id="Path_2040" data-name="Path 2040" class="cls-2" d="M107.875,111.369v2.22a10.384,10.384,0,0,1-1.691,6.366,5.256,5.256,0,0,1-.774.823v5.383a10.351,10.351,0,0,0,4.157-2.55q3.084-3.159,3.083-9.822V108.67Z" transform="translate(-46.434 -57.281)"/>
    <g id="Group_594" data-name="Group 594" transform="translate(74.406 32.387)">
      <path id="Path_2041" data-name="Path 2041" class="cls-1" d="M145.693,119.178l-.02-17.374v-.63h-.63l-1.346,0h-.579l-.048.577c-.061.724-.106,1.473-.134,2.228l0,.091-.076-.091A9.258,9.258,0,0,0,141,102.32a8.993,8.993,0,0,0-2.366-1.132,9.159,9.159,0,0,0-2.737-.408h-.011a9.346,9.346,0,0,0-3.776.776,9.7,9.7,0,0,0-3.045,2.092,10.1,10.1,0,0,0-2.056,3.09,9.626,9.626,0,0,0,2.03,10.57,9.88,9.88,0,0,0,3.046,2.058,9.46,9.46,0,0,0,3.81.767h.012a8.805,8.805,0,0,0,7-3.122l0,2.17v.629h.63l1.526,0h.629Zm-9.8-17.767h0Zm.043,15.936a6.974,6.974,0,0,1-2.711-.532,6.781,6.781,0,0,1-2.2-1.456,6.854,6.854,0,0,1-2-4.873,6.988,6.988,0,0,1,.532-2.719,6.637,6.637,0,0,1,3.654-3.662,7.181,7.181,0,0,1,5.44-.007,7.092,7.092,0,0,1,2.229,1.461,6.63,6.63,0,0,1,1.478,2.194,7.009,7.009,0,0,1,.538,2.719,6.836,6.836,0,0,1-.531,2.694,6.685,6.685,0,0,1-1.475,2.178,7.072,7.072,0,0,1-2.225,1.466,6.989,6.989,0,0,1-2.719.537" transform="translate(-126.241 -88.242)"/>
      <path id="Path_2042" data-name="Path 2042" class="cls-1" d="M163.1,102.219a8.616,8.616,0,0,0-2.2,1.928v-.065c0-.5-.009-.994-.025-1.457-.02-.579-.023-.775-.023-.832v-.63h-.629l-1.3,0h-.63v.629l.02,17.374v.63h.629l1.526,0h.63v-.629l-.011-9.608a4.9,4.9,0,0,1,.512-2.251A5.676,5.676,0,0,1,163,105.527a6.6,6.6,0,0,1,2.069-1.17,8.319,8.319,0,0,1,2.483-.461l.526-.017.076-.522.267-1.84.107-.736-.743.016A9.237,9.237,0,0,0,163.1,102.219Z" transform="translate(-132.029 -88.243)"/>
      <path id="Path_2043" data-name="Path 2043" class="cls-1" d="M192.793,103.506a9.585,9.585,0,0,0-6.811-2.781h-.012a9.161,9.161,0,0,0-2.747.414,9.4,9.4,0,0,0-2.356,1.11A8.431,8.431,0,0,0,179,103.925l-.084.1q0-.269-.014-.53c-.016-.425-.024-.81-.024-1.146v-1.213h-.629l-1.526,0h-.63v.629l.029,25.725v.63h.63l1.571,0h.63v-.63l-.011-10.5v-.028a9.122,9.122,0,0,0,1.9,1.65,8.982,8.982,0,0,0,5.051,1.468h.012a9.871,9.871,0,0,0,3.834-.749,9.337,9.337,0,0,0,5.113-5.124,9.749,9.749,0,0,0,.741-3.791,9.874,9.874,0,0,0-.749-3.834A9.528,9.528,0,0,0,192.793,103.506Zm-6.949,13.785a6.991,6.991,0,0,1-2.711-.531,6.8,6.8,0,0,1-4.2-6.329,6.977,6.977,0,0,1,.532-2.72,6.637,6.637,0,0,1,3.654-3.662,6.99,6.99,0,0,1,2.719-.537,6.8,6.8,0,0,1,2.714.528,6.961,6.961,0,0,1,2.164,1.458,6.546,6.546,0,0,1,1.435,2.191,7.283,7.283,0,0,1,.519,2.727,7.1,7.1,0,0,1-.511,2.7,6.574,6.574,0,0,1-1.431,2.175,6.958,6.958,0,0,1-2.161,1.464,6.784,6.784,0,0,1-2.712.534" transform="translate(-135.247 -88.233)"/>
      <path id="Path_2044" data-name="Path 2044" class="cls-1" d="M208.488,85.688v-.21h-.63l-1.571,0h-.63v.21l.038,30.672v.63h.63l1.571,0h.63v-.63Z" transform="translate(-140.588 -85.478)"/>
      <path id="Path_2045" data-name="Path 2045" class="cls-1" d="M235.425,101.7v-.629h-.63l-1.346,0h-.579l-.048.577c-.061.724-.106,1.474-.134,2.229l0,.091-.076-.091a9.235,9.235,0,0,0-1.857-1.661,8.993,8.993,0,0,0-2.366-1.132,9.136,9.136,0,0,0-2.737-.408h-.011a9.36,9.36,0,0,0-3.776.775,9.706,9.706,0,0,0-3.045,2.093,10.093,10.093,0,0,0-2.056,3.089,9.627,9.627,0,0,0,2.03,10.57,9.881,9.881,0,0,0,3.046,2.059,9.46,9.46,0,0,0,3.81.767h.012a8.8,8.8,0,0,0,7-3.123l0,2.17v.63h.63l1.526,0h.629v-.629Zm-9.778-.392h0Zm.043,15.936a6.971,6.971,0,0,1-2.711-.532,6.8,6.8,0,0,1-4.2-6.329,6.987,6.987,0,0,1,.532-2.719A6.642,6.642,0,0,1,222.965,104,7.186,7.186,0,0,1,228.4,104a7.093,7.093,0,0,1,2.229,1.461,6.627,6.627,0,0,1,1.478,2.193,7.015,7.015,0,0,1,.538,2.719,6.841,6.841,0,0,1-.531,2.695,6.693,6.693,0,0,1-1.475,2.178,7.1,7.1,0,0,1-2.225,1.466,6.992,6.992,0,0,1-2.719.537" transform="translate(-142.455 -88.225)"/>
      <path id="Path_2046" data-name="Path 2046" class="cls-1" d="M255.038,105.492l.492-.593.9-1.078.352-.424-.372-.4a6.144,6.144,0,0,0-2.576-1.694,8.223,8.223,0,0,0-2.6-.479h-.007a6.671,6.671,0,0,0-1.957.3,5.319,5.319,0,0,0-1.78.945,5.091,5.091,0,0,0-1.305,1.612,4.922,4.922,0,0,0-.519,2.314,4.4,4.4,0,0,0,.778,2.687,5.859,5.859,0,0,0,1.835,1.607,11.685,11.685,0,0,0,2.23.97,19.306,19.306,0,0,1,2.043.779,4.51,4.51,0,0,1,1.44,1,2,2,0,0,1,.483,1.432,2.321,2.321,0,0,1-.328,1.28,2.955,2.955,0,0,1-.849.891,3.667,3.667,0,0,1-1.091.5,4.137,4.137,0,0,1-1.05.16,6.1,6.1,0,0,1-4.365-2.089l-.526.528c-.049.048-.141.147-.453.5-.213.243-.408.452-.578.624l-.409.41.374.442a6.036,6.036,0,0,0,2.8,1.85,10.149,10.149,0,0,0,3.1.521,6.993,6.993,0,0,0,2.6-.451,5.743,5.743,0,0,0,1.939-1.264,5.382,5.382,0,0,0,1.217-1.856,5.978,5.978,0,0,0,.4-2.183,4.329,4.329,0,0,0-.778-2.642,5.715,5.715,0,0,0-1.816-1.586,13.023,13.023,0,0,0-2.219-.965,16.475,16.475,0,0,1-2.034-.819,5.1,5.1,0,0,1-1.441-1.014,1.862,1.862,0,0,1-.475-1.358,2.009,2.009,0,0,1,.246-1.045,2.452,2.452,0,0,1,.66-.736,2.631,2.631,0,0,1,.887-.417,3.962,3.962,0,0,1,.986-.138,5.372,5.372,0,0,1,1.888.383A4.8,4.8,0,0,1,255.038,105.492Z" transform="translate(-147.664 -88.249)"/>
    </g>
  </g>
</svg>
